<?xml version="1.0" encoding="UTF-8" standalone="no"?>
<!-- Created with Inkscape (http://www.inkscape.org/) -->

<svg
   xmlns:dc="http://purl.org/dc/elements/1.1/"
   xmlns:cc="http://creativecommons.org/ns#"
   xmlns:rdf="http://www.w3.org/1999/02/22-rdf-syntax-ns#"
   xmlns:svg="http://www.w3.org/2000/svg"
   xmlns="http://www.w3.org/2000/svg"
   xmlns:sodipodi="http://sodipodi.sourceforge.net/DTD/sodipodi-0.dtd"
   xmlns:inkscape="http://www.inkscape.org/namespaces/inkscape"
   width="295.0701"
   height="295.07593"
   id="svg2"
   version="1.1"
   inkscape:version="0.91 r13725"
   sodipodi:docname="logoblack.svg">
  <defs
     id="defs4" />
  <sodipodi:namedview
     id="base"
     pagecolor="#ffffff"
     bordercolor="#666666"
     borderopacity="1.0"
     inkscape:pageopacity="0.0"
     inkscape:pageshadow="2"
     inkscape:zoom="1"
     inkscape:cx="75.40611"
     inkscape:cy="134.26202"
     inkscape:document-units="px"
     inkscape:current-layer="layer1"
     showgrid="false"
     inkscape:window-width="1360"
     inkscape:window-height="747"
     inkscape:window-x="0"
     inkscape:window-y="15"
     inkscape:window-maximized="0"
     fit-margin-top="0"
     fit-margin-left="0"
     fit-margin-right="0"
     fit-margin-bottom="0" />
  <metadata
     id="metadata7">
    <rdf:RDF>
      <cc:Work
         rdf:about="">
        <dc:format>image/svg+xml</dc:format>
        <dc:type
           rdf:resource="http://purl.org/dc/dcmitype/StillImage" />
        <dc:title></dc:title>
      </cc:Work>
    </rdf:RDF>
  </metadata>
  <g
     inkscape:label="Ebene 1"
     inkscape:groupmode="layer"
     id="layer1"
     transform="translate(277.67567,-809.94038)">
    <g
       id="g4216"
       transform="matrix(0.34044385,0,0,0.34044385,-2.0903262,795.73611)"
       style="fill:#000000;fill-opacity:1">
      <path
         style="fill:#000000;fill-opacity:1"
         d="m -134.46484,7.5800781 c -1.47715,0.04337 -2.82693,0.8477875 -3.5625,2.125 l -7.30469,12.6171879 c -1.20368,0.134089 -2.40724,0.289362 -3.60156,0.457031 l -10.24414,-10.361328 c -1.03805,-1.04738 -2.54649,-1.4854 -3.98438,-1.158203 -1.44335,0.33301 -2.60869,1.382974 -3.08398,2.785156 l -4.68946,13.757812 c -1.16845,0.372902 -2.32299,0.767284 -3.47656,1.167969 l -12.04492,-8.142578 c -1.22359,-0.830301 -2.79293,-0.968903 -4.14063,-0.359375 -1.34515,0.603813 -2.28629,1.868439 -2.48046,3.330078 l -1.91797,14.421875 c -1.06606,0.592795 -2.12068,1.199738 -3.17188,1.820313 l -13.41015,-5.642578 c -1.36278,-0.575099 -2.92566,-0.40209 -4.125,0.457031 -1.20519,0.853649 -1.8848,2.275273 -1.78516,3.748047 l 0.93555,14.548828 c -0.91954,0.780369 -1.83149,1.577663 -2.73047,2.382812 l -14.2793,-2.927734 c -1.45037,-0.293184 -2.94848,0.182106 -3.96094,1.255859 -1.01803,1.076702 -1.40014,2.594716 -1.01953,4.025391 l 3.75781,14.08789 c -0.74823,0.941804 -1.48778,1.895674 -2.21289,2.859376 l -14.58007,-0.08008 c -1.46998,6.81e-4 -2.85241,0.746752 -3.63672,2 -0.78728,1.24769 -0.86617,2.820791 -0.21485,4.150391 l 6.42188,13.056641 c -0.55522,1.080048 -1.1038,2.168768 -1.63281,3.273437 l -14.28126,2.75586 c -1.45054,0.279593 -2.65115,1.290763 -3.17773,2.671873 -0.52363,1.38386 -0.29543,2.93843 0.59961,4.11133 l 8.83594,11.53906 c -0.33514,1.17517 -0.65918,2.35657 -0.96289,3.54493 l -13.46289,5.48828 c -1.36624,0.55647 -2.34689,1.78188 -2.5918,3.24218 -0.24501,1.4575 0.27929,2.93456 1.38867,3.91211 l 10.93945,9.61524 c -0.0973,1.20204 -0.17998,2.41433 -0.24609,3.62109 l -12.16016,8.03125 c -1.23175,0.81211 -1.95751,2.20353 -1.91406,3.68359 0.0435,1.48006 0.84781,2.82883 2.125,3.56446 l 12.61133,7.30273 c 0.13687,1.20362 0.29136,2.40535 0.45898,3.59961 l -10.35546,10.24414 c -1.0502,1.03815 -1.48822,2.54658 -1.15821,3.98438 0.33018,1.44343 1.38268,2.60581 2.7793,3.08398 l 13.75977,4.68946 c 0.3729,1.16845 0.76641,2.32699 1.16992,3.48046 l -8.14258,12.04297 c -0.82747,1.2263 -0.966,2.78975 -0.35938,4.13477 0.60679,1.35065 1.86766,2.28928 3.33204,2.48047 l 14.41601,1.91406 c 0.59293,1.07172 1.19882,2.12667 1.82227,3.17773 l -5.64454,13.40625 c -0.57513,1.36277 -0.4003,2.92589 0.45899,4.13086 0.85936,1.20782 2.2791,1.88358 3.74609,1.78125 l 14.54492,-0.9375 c 0.78613,0.92501 1.57569,1.83145 2.38086,2.73047 l -2.92187,14.28516 c -0.29609,1.44773 0.1725,2.93801 1.25195,3.95312 1.07115,1.02101 2.59871,1.39815 4.0293,1.01758 l 14.08398,-3.75781 c 0.94485,0.75666 1.89963,1.49062 2.86328,2.21289 l -0.0781,14.58008 c -0.0134,1.47607 0.74665,2.85546 2,3.64258 1.24761,0.78444 2.81784,0.86109 4.14453,0.20703 l 13.05664,-6.41797 c 1.08311,0.56075 2.16971,1.10558 3.27149,1.63476 l 2.76172,14.27344 c 0.27976,1.45336 1.29092,2.65871 2.67187,3.17969 1.37828,0.52664 2.93839,0.29931 4.11133,-0.5957 l 11.54101,-8.83985 c 1.17525,0.33513 2.3566,0.66114 3.54493,0.96485 l 5.48828,13.45312 c 0.55645,1.36625 1.78001,2.35641 3.24023,2.5957 1.45767,0.25062 2.93542,-0.27654 3.91016,-1.38867 l 9.61914,-10.9414 c 1.20223,0.10297 2.41144,0.18217 3.62109,0.2539 l 8.0332,12.16406 c 0.80911,1.22619 2.20435,1.95549 3.68165,1.91211 1.47728,-0.0434 2.82602,-0.85053 3.56445,-2.125 l 7.30469,-12.61328 c 1.2035,-0.14259 2.40549,-0.29346 3.59961,-0.46679 l 10.24023,10.35742 c 1.0382,1.05302 2.548651,1.49384 3.986328,1.1582 1.443475,-0.32736 2.608644,-1.38471 3.083984,-2.78125 l 4.6875,-13.75195 c 1.168417,-0.3729 2.328941,-0.76837 3.482422,-1.17188 l 12.041016,8.14649 c 1.223422,0.82465 2.79172,0.96207 4.136719,0.35547 1.348048,-0.60111 2.286507,-1.86758 2.480469,-3.33204 l 1.919921,-14.41211 c 1.066124,-0.59282 2.118666,-1.20732 3.169922,-1.82226 l 13.410157,5.64062 c 1.362812,0.5751 2.924672,0.40716 4.126953,-0.44921 1.20498,-0.85929 1.880151,-2.27823 1.783203,-3.75391 l -0.935547,-14.55078 c 0.919566,-0.78037 1.828554,-1.56625 2.724609,-2.37696 l 14.283203,2.92383 c 1.450557,0.29598 2.94955,-0.16798 3.958985,-1.25 1.018034,-1.07669 1.400016,-2.59167 1.019531,-4.01953 l -3.759766,-14.08984 c 0.751001,-0.94471 1.492673,-1.89595 2.214844,-2.86524 l 14.5781251,0.082 c 1.4704488,0.0161 2.8544875,-0.74198 3.6386719,-1.99805 0.7871148,-1.25331 0.8678778,-2.8238 0.2109375,-4.15039 l -6.4199415,-13.0527 c 0.557823,-1.08574 1.104621,-2.17471 1.630859,-3.27929 l 14.28125,-2.75586 c 1.4535128,-0.27687 2.654178,-1.28804 3.1777344,-2.67188 0.5238699,-1.37821 0.2992659,-2.93187 -0.6015625,-4.10742 l -8.8339844,-11.54297 c 0.3323918,-1.17508 0.65629821,-2.35455 0.96289062,-3.54297 L 12.802734,182.89453 c 1.368941,-0.55937 2.356478,-1.78204 2.595704,-3.24219 0.250697,-1.45766 -0.276488,-2.9355 -1.388672,-3.91015 L 3.0722656,166.12305 c 0.0945,-1.20196 0.1771386,-2.41229 0.2460938,-3.61914 l 12.1601566,-8.03125 c 1.231812,-0.8093 1.957435,-2.2044 1.914062,-3.68164 -0.04337,-1.47724 -0.843807,-2.82797 -2.121094,-3.56641 L 2.6582031,139.91992 C 2.518406,138.71638 2.3641116,137.51465 2.1992188,136.32031 L 12.552734,126.08008 c 1.052892,-1.04105 1.49391,-2.5487 1.158204,-3.98633 -0.327255,-1.44351 -1.379911,-2.61067 -2.779297,-3.08594 l -13.7578129,-4.68945 c -0.3756844,-1.1684 -0.7673541,-2.32691 -1.1679687,-3.48047 l 8.140625,-12.039062 c 0.8303878,-1.223555 0.9632955,-2.787927 0.359375,-4.138672 -0.603865,-1.3451 -1.8655455,-2.283642 -3.3300782,-2.480468 L -13.242188,90.265625 c -0.590173,-1.071806 -1.200771,-2.12626 -1.818359,-3.171875 l 5.6406251,-13.412109 c 0.5859183,-1.519801 0.2509584,-2.689028 -0.4550787,-4.128907 -0.8564104,-1.205076 -2.2668614,-1.883126 -3.7480474,-1.783203 l -14.548828,0.935547 c -0.78037,-0.919498 -1.574924,-1.831305 -2.382813,-2.724609 L -27.625,51.695312 c 0.295902,-1.450538 -0.17239,-2.943869 -1.251953,-3.958984 -1.070935,-1.012545 -2.596651,-1.400134 -4.027344,-1.019531 l -14.082031,3.759765 c -0.941916,-0.751096 -1.898695,-1.493761 -2.865234,-2.21875 l 0.08203,-14.578124 c 0.01335,-1.476087 -0.748769,-2.857201 -2.001953,-3.638672 -1.256133,-0.787021 -2.817767,-0.864126 -4.144532,-0.212891 l -13.054687,6.419922 c -1.085713,-0.555022 -2.174478,-1.101634 -3.273438,-1.630859 L -75.00586,20.332031 c -0.279607,-1.447725 -1.290838,-2.653964 -2.671875,-3.177734 -1.378311,-0.526671 -2.934682,-0.298237 -4.107422,0.599609 l -11.548828,8.835938 c -1.172394,-0.335211 -2.348794,-0.657233 -3.53711,-0.960938 l -5.490235,-13.460937 c -0.55662,-1.371884 -1.78179,-2.3527317 -3.24219,-2.5976565 -1.45742,-0.2421873 -2.93528,0.2821913 -3.91015,1.3886715 l -9.61524,10.945313 c -1.20195,-0.09731 -2.41048,-0.182776 -3.61718,-0.246094 L -130.7793,9.4921875 c -0.81209,-1.2317711 -2.20822,-1.955485 -3.68554,-1.9121094 z m 4.32422,32.7832029 c 29.6175,0.04869 58.069176,11.546932 79.404292,32.089844 -5.65931,0.433896 -10.028383,1.066573 -15.335938,2.101563 l -12.263672,2.390624 -7.113281,-3.285156 C -109.41041,62.593733 -133.65939,58.935443 -152.85352,63.490234 c -10.76051,2.553479 -27.7841,10.854468 -38.48632,18.767578 -20.27674,14.992416 -34.92708,32.578868 -47.94141,57.548828 -2.96782,5.69421 -4.51409,8.56197 -5.32227,9.5332 3.07401,-60.997998 53.38754,-108.899939 114.4629,-108.976559 z m -2.33985,37.304688 c 0.66071,-0.0052 1.30218,0.04736 1.91406,0.162109 4.56747,0.856523 9.79302,5.440337 11.25782,9.876953 2.12117,6.424693 -0.83348,13.479849 -6.97461,16.654299 -3.55488,1.83759 -10.4894,1.81639 -13.91407,-0.043 -6.34447,-3.44464 -8.72218,-13.466744 -4.74218,-19.992188 2.30655,-3.781732 7.83402,-6.622157 12.45898,-6.658203 z m 89.951173,3.52539 c 0.34443,0.387004 0.686234,0.776336 1.025391,1.167969 -18.75338,7.166454 -28.95166,12.617871 -38.226563,20.435552 -5.432837,4.57924 -7.002738,4.74277 -15.359375,1.5957 l -5.802736,-2.18555 3.148439,-2.240233 c 4.069632,-2.896714 18.977388,-8.971548 31.289063,-12.748047 4.43674,-1.294803 14.893822,-3.849496 23.925781,-6.025391 z m 2.197266,2.5 c 16.14911,20.303881 24.941648,45.480791 24.943359,71.423831 -0.04609,33.81591 -15.005044,65.8899 -40.882812,87.6582 l 0,-5.4707 c 0,-7.33841 -2.902316,-24.33244 -5.542969,-32.46289 -3.245009,-9.99122 -10.619323,-26.98452 -17.748047,-40.89844 -8.122582,-15.85376 -9.94954,-22.44637 -8.283203,-29.87891 0.996513,-4.44496 9.441024,-20.03612 15.490234,-28.59765 5.306874,-7.510935 16.035158,-14.79352 32.023438,-21.773441 z M -196.23047,94.982422 c 0.48306,0 1.15001,2.106007 1.48242,4.679687 0.89585,6.935701 6.10721,23.232741 8.33399,26.062501 2.20924,2.80753 12.70042,8.56284 21.95508,12.04492 5.2543,1.97695 26.04637,7.74368 35.4082,9.82031 5.18482,1.15009 28.09634,30.16788 38.277342,48.47852 9.724064,17.4888 17.259215,39.96178 17.960938,53.56836 l 0.236328,4.58594 c -17.473317,10.1989 -37.332498,15.59679 -57.564448,15.64648 -56.38258,-0.0323 -104.38856,-41.02054 -113.25782,-96.70117 0.71255,-2.34673 2.97664,-4.08689 7.89063,-7.26172 8.0761,-5.21779 14.02683,-6.4999 22.92578,-4.94141 13.76436,2.41058 32.47571,9.17137 59.72851,21.58204 l 15.2754,6.95507 -6.40626,-5.93164 c -8.55017,-7.91742 -24.56923,-19.98572 -34.4082,-25.92383 -11.08672,-6.69118 -23.39968,-11.12054 -34.66992,-12.46875 -13.42992,-1.60655 -13.60173,-1.6592 -14.30078,-4.44335 -0.92831,-3.69725 1.99053,-10.30919 9.50781,-21.53126 6.14611,-9.17512 19.57958,-24.220698 21.625,-24.220698 z"
         transform="matrix(2.9373419,0,0,2.9373419,6.1400028,19.462945)"
         id="path4151"
         inkscape:connector-curvature="0"
         sodipodi:nodetypes="scccccccccccccccccccccccccccccccccccccccscccccccccccccccccccccccccccccccccccccccscccccccccccccccccccccccccccccccccccccccscccccccccccccccccccccccccccccccccccccccscccccssscccssssssccsccccccscssssscssssssccccsscccssssss" />
    </g>
  </g>
</svg>
